<svg xmlns="http://www.w3.org/2000/svg" version="1.1" xmlns:xlink="http://www.w3.org/1999/xlink" xmlns:svgjs="http://svgjs.dev/svgjs" width="1000" height="262" viewBox="0 0 1000 262"><g transform="matrix(1,0,0,1,-0.6060606060606233,0.4272669608529611)"><svg viewBox="0 0 396 104" data-background-color="#ffffff" preserveAspectRatio="xMidYMid meet" height="262" width="1000" xmlns="http://www.w3.org/2000/svg" xmlns:xlink="http://www.w3.org/1999/xlink"><g id="tight-bounds" transform="matrix(1,0,0,1,0.2400000000000091,-0.16960215239964782)"><svg viewBox="0 0 395.52 104.33920430479927" height="104.33920430479927" width="395.52"><g><svg viewBox="0 0 572.2767730102858 150.9681005714286" height="104.33920430479927" width="395.52"><g transform="matrix(1,0,0,1,176.75677301028577,20.864621714285725)"><svg viewBox="0 0 395.52000000000004 109.23885714285716" height="109.23885714285716" width="395.52000000000004"><g id="textblocktransform"><svg viewBox="0 0 395.52000000000004 109.23885714285716" height="109.23885714285716" width="395.52000000000004" id="textblock"><g><svg viewBox="0 0 395.52000000000004 109.23885714285716" height="109.23885714285716" width="395.52000000000004"><g transform="matrix(1,0,0,1,0,0)"><svg width="395.52000000000004" viewBox="0.20000000298023224 -37.849998474121094 173.24000549316406 47.849998474121094" height="109.23885714285716" data-palette-color="#e83d95"><path d="M12.2 0L12.2-30.65 0.2-30.65 0.2-35 29.15-35 29.15-30.65 17.15-30.65 17.15 0 12.2 0ZM42.15-26.75Q47.65-26.75 50.57-24.05 53.5-21.35 53.5-16L53.5-16 53.5 0 48.95 0 48.95-3.5Q47.75-1.65 45.52-0.68 43.3 0.3 40.25 0.3L40.25 0.3Q35.8 0.3 33.12-1.85 30.45-4 30.45-7.5L30.45-7.5Q30.45-11 33-13.13 35.55-15.25 41.1-15.25L41.1-15.25 48.7-15.25 48.7-16.2Q48.7-19.3 46.9-20.95 45.1-22.6 41.6-22.6L41.6-22.6Q39.25-22.6 37-21.83 34.75-21.05 33.2-19.75L33.2-19.75 31.2-23.35Q33.25-25 36.1-25.88 38.95-26.75 42.15-26.75L42.15-26.75ZM41.05-3.4Q43.8-3.4 45.8-4.63 47.8-5.85 48.7-8.1L48.7-8.1 48.7-11.8 41.3-11.8Q35.2-11.8 35.2-7.7L35.2-7.7Q35.2-5.7 36.75-4.55 38.3-3.4 41.05-3.4L41.05-3.4ZM70 0.3Q66.75 0.3 63.75-0.58 60.75-1.45 59.05-2.8L59.05-2.8 61.05-6.6Q62.8-5.35 65.3-4.6 67.8-3.85 70.34-3.85L70.34-3.85Q76.65-3.85 76.65-7.45L76.65-7.45Q76.65-8.65 75.8-9.35 74.95-10.05 73.67-10.38 72.4-10.7 70.05-11.1L70.05-11.1Q66.84-11.6 64.82-12.25 62.8-12.9 61.35-14.45 59.9-16 59.9-18.8L59.9-18.8Q59.9-22.4 62.9-24.58 65.9-26.75 70.95-26.75L70.95-26.75Q73.59-26.75 76.25-26.1 78.9-25.45 80.59-24.35L80.59-24.35 78.55-20.55Q75.3-22.65 70.9-22.65L70.9-22.65Q67.84-22.65 66.25-21.65 64.65-20.65 64.65-19L64.65-19Q64.65-17.7 65.55-16.95 66.45-16.2 67.77-15.85 69.09-15.5 71.5-15.05L71.5-15.05Q74.7-14.5 76.67-13.88 78.65-13.25 80.05-11.75 81.45-10.25 81.45-7.55L81.45-7.55Q81.45-3.95 78.37-1.83 75.3 0.3 70 0.3L70 0.3ZM107.69 0L97.74-12.35 92.24-7.25 92.24 0 87.44 0 87.44-37.1 92.24-37.1 92.24-13.3 106.69-26.5 112.49-26.5 101.34-15.55 113.59 0 107.69 0ZM117.89 0L117.89-26.5 122.69-26.5 122.69 0 117.89 0ZM120.29-31.6Q118.89-31.6 117.97-32.5 117.04-33.4 117.04-34.7L117.04-34.7Q117.04-36 117.97-36.93 118.89-37.85 120.29-37.85L120.29-37.85Q121.69-37.85 122.62-36.98 123.54-36.1 123.54-34.8L123.54-34.8Q123.54-33.45 122.62-32.52 121.69-31.6 120.29-31.6L120.29-31.6ZM141.54-33.45Q137.24-33.45 137.24-28.8L137.24-28.8 137.24-26.5 144.94-26.5 144.94-22.55 137.34-22.55 137.34 0 132.54 0 132.54-22.55 128.04-22.55 128.04-26.5 132.54-26.5 132.54-28.85Q132.54-32.8 134.84-35.1 137.14-37.4 141.29-37.4L141.29-37.4Q142.89-37.4 144.29-37 145.69-36.6 146.69-35.85L146.69-35.85 145.24-32.2Q143.59-33.45 141.54-33.45L141.54-33.45ZM168.74-26.5L173.44-26.5 160.59 2.65Q158.89 6.7 156.61 8.35 154.34 10 151.14 10L151.14 10Q149.19 10 147.36 9.38 145.54 8.75 144.34 7.55L144.34 7.55 146.39 3.95Q148.44 5.9 151.14 5.9L151.14 5.9Q152.89 5.9 154.06 4.98 155.24 4.05 156.19 1.8L156.19 1.8 157.04-0.05 145.34-26.5 150.34-26.5 159.59-5.3 168.74-26.5Z" opacity="1" transform="matrix(1,0,0,1,0,0)" fill="#ffffff" class="wordmark-text-0" data-fill-palette-color="primary" id="text-0"></path></svg></g></svg></g></svg></g></svg></g><g><svg viewBox="0 0 150.9681005714286 150.9681005714286" height="150.9681005714286" width="150.9681005714286"><g><svg></svg></g><g id="icon-0"><svg viewBox="0 0 150.9681005714286 150.9681005714286" height="150.9681005714286" width="150.9681005714286"><g><path xmlns="http://www.w3.org/2000/svg" d="M45.29 150.968c-25.013 0-45.29-20.277-45.29-45.29v-60.388c0-25.013 20.277-45.29 45.29-45.29h60.388c25.013 0 45.29 20.277 45.29 45.29v60.388c0 25.013-20.277 45.29-45.29 45.29z" fill="#ffffff" fill-rule="nonzero" stroke="none" stroke-width="1" stroke-linecap="butt" stroke-linejoin="miter" stroke-miterlimit="10" stroke-dasharray="" stroke-dashoffset="0" font-family="none" font-weight="none" font-size="none" text-anchor="none" style="mix-blend-mode: normal" data-fill-palette-color="accent"></path></g><g transform="matrix(1,0,0,1,30.19362011428572,47.17753142857144)"><svg viewBox="0 0 90.58086034285716 56.613037714285724" height="56.613037714285724" width="90.58086034285716"><g><svg xmlns="http://www.w3.org/2000/svg" version="1.1" data-icon="project" data-container-transform="translate(0 3)" viewBox="0 3 16 10" x="0" y="0" height="56.613037714285724" width="90.58086034285716" class="icon-s-0" data-fill-palette-color="quaternary" id="s-0"><path d="M0 0v10h1v-10h-1z m15 0v10h1v-10h-1z m-13 1v2h4v-2h-4z m2 3v2h7v-2h-7z m5 3v2h5v-2h-5z" transform="translate(0 3)" fill="#e83d95" data-fill-palette-color="quaternary"></path></svg></g></svg></g></svg></g></svg></g></svg></g><defs></defs></svg><rect width="395.52" height="104.33920430479927" fill="none" stroke="none" visibility="hidden"></rect></g></svg></g></svg>